<svg id="Layer_1" data-name="Layer 1" xmlns="http://www.w3.org/2000/svg" viewBox="0 0 194 122"><defs><style>.cls-1{fill:#fff;}</style></defs><title>logo art deco study</title><path class="cls-1" d="M86.62,39.77,84.48,33.7H75.73L73.6,39.77H68L77,14.91h6.45l9,24.86ZM81.05,23.62a23,23,0,0,1-.84-3H80a24.58,24.58,0,0,1-.83,3l-2,5.69h5.94Z"/><path class="cls-1" d="M109.34,30l6.53,9.75h-6.44l-5.49-8.41h-3.18v8.41H95.2V14.91h8.62c6.53,0,10.29,3,10.29,8.37A7,7,0,0,1,109.34,30m-5.69-10.55h-2.89v7.58h2.89c3,0,4.86-1.17,4.86-3.77s-1.89-3.81-4.86-3.81"/><polygon class="cls-1" points="123.58 39.77 123.58 19.89 116.46 19.89 116.46 14.91 136.47 14.91 136.05 19.89 129.14 19.89 129.14 39.77 123.58 39.77"/><path class="cls-1" d="M76.63,74.63H67.76V49.77h8.87c8.5,0,13.77,5.11,13.77,12.43S85.09,74.63,76.63,74.63m0-20.17H73.29V69.94h3.34c4.94,0,8-2.93,8-7.74s-3.1-7.74-8-7.74"/><polygon class="cls-1" points="109.99 54.71 99.36 54.71 99.36 59.69 108.11 59.69 108.11 64.5 99.36 64.5 99.36 69.69 110.62 69.69 110.62 74.63 93.8 74.63 93.8 49.77 110.41 49.77 109.99 54.71"/><path class="cls-1" d="M126.15,75c-8.37,0-13.65-5.44-13.65-12.81a12.48,12.48,0,0,1,12.9-12.81,14,14,0,0,1,8.16,2.14l-1.8,5a9.26,9.26,0,0,0-6-2c-4.39,0-7.57,2.89-7.57,7.66,0,4.48,3.26,7.66,8.12,7.66a12,12,0,0,0,7.07-2l.25,5.4A14.49,14.49,0,0,1,126.15,75"/><path class="cls-1" d="M161.73,62.2c0,7.37-5.45,12.81-13,12.81s-13-5.44-13-12.81,5.48-12.81,13-12.81,13,5.44,13,12.81m-5.78,0c0-4.52-3-7.83-7.24-7.83s-7.24,3.27-7.24,7.83,3,7.83,7.24,7.83S156,66.72,156,62.2"/><path class="cls-1" d="M83.83,90.53a14.56,14.56,0,0,0-6.28-1.38c-2.67,0-4.1.8-4.1,2.34,0,3.94,12.48,1.72,12.48,10.51,0,4.81-3.65,7.87-10.26,7.87a18.17,18.17,0,0,1-7.78-1.55l.46-5.19A16,16,0,0,0,75.84,105c3,0,4.39-.79,4.39-2.47,0-4.06-12.47-1.8-12.47-10.5,0-4.61,3.68-7.75,9.67-7.75a19.83,19.83,0,0,1,7.45,1.34Z"/><polygon class="cls-1" points="94.72 109.49 94.72 89.61 87.6 89.61 87.6 84.63 107.61 84.63 107.19 89.61 100.28 89.61 100.28 109.49 94.72 109.49"/><path class="cls-1" d="M131.59,98.94c0,7-4,10.93-10.76,10.93s-10.75-3.94-10.75-10.93V84.63h5.56v13.9c0,3.93,1.64,6.23,5.32,6.23s5.27-2.3,5.27-6.23V84.63h5.36Z"/><path class="cls-1" d="M144.94,109.49h-8.87V84.63h8.87c8.5,0,13.77,5.11,13.77,12.43s-5.31,12.43-13.77,12.43m0-20.17h-3.35V104.8h3.35c4.94,0,8-2.93,8-7.74s-3.1-7.74-8-7.74"/><polygon class="cls-1" points="172.61 100.7 172.61 109.49 167.08 109.49 167.08 100.7 158.17 84.63 164.32 84.63 169.97 95.55 175.62 84.63 181.52 84.63 172.61 100.7"/><rect class="cls-1" x="12.37" y="15.1" width="50.94" height="3.95"/><path class="cls-1" d="M61.58,21.27H14.09a4.09,4.09,0,0,0,3.22,4.26v3H58.36v-3a4.09,4.09,0,0,0,3.22-4.26"/><path class="cls-1" d="M17.31,30.73h0V80.67l20.56,29.39L58.4,80.67V30.73Zm2.44,47.42a.76.76,0,0,1-1.52,0V34.57a.76.76,0,1,1,1.52,0Zm3.4-.65a1.42,1.42,0,0,1-2.83,0V35.22a1.42,1.42,0,0,1,2.83,0ZM28,77a1.89,1.89,0,1,1-3.78,0V35.7a1.89,1.89,0,0,1,3.78,0Zm5.88-.37a2.27,2.27,0,0,1-4.53,0V36.08a2.27,2.27,0,1,1,4.53,0Zm6.21,0a2.27,2.27,0,0,1-4.53,0V36.08a2.27,2.27,0,1,1,4.53,0Zm6.31,0a2.27,2.27,0,0,1-4.54,0V36.08a2.27,2.27,0,0,1,4.54,0Zm5.13.37a1.9,1.9,0,0,1-3.79,0V35.7a1.9,1.9,0,0,1,3.79,0Zm3.9.48a1.42,1.42,0,0,1-2.83,0V35.22a1.42,1.42,0,0,1,2.83,0Zm2.1.65a.76.76,0,1,1-1.52,0V34.57a.76.76,0,1,1,1.52,0Z"/><polygon class="cls-1" points="30.22 99.15 37.84 110.06 45.47 99.15 30.22 99.15"/></svg>